<mxfile host="app.diagrams.net" agent="Mozilla/5.0 (Windows NT 10.0; Win64; x64; rv:142.0) Gecko/20100101 Firefox/142.0" version="28.1.2">
  <diagram name="Page-1" id="yc3h4sEVYcpJaDFJtaXy">
    <mxGraphModel dx="260" dy="661" grid="1" gridSize="10" guides="1" tooltips="1" connect="1" arrows="1" fold="1" page="1" pageScale="1" pageWidth="850" pageHeight="1100" math="0" shadow="0">
      <root>
        <mxCell id="0" />
        <mxCell id="1" parent="0" />
        <mxCell id="5ifPPL0t6__1BePgSY4V-1" value="Amazon S3" style="sketch=0;outlineConnect=0;fontColor=#232F3E;gradientColor=none;strokeColor=#ffffff;fillColor=#232F3E;dashed=0;verticalLabelPosition=middle;verticalAlign=bottom;align=center;html=1;whiteSpace=wrap;fontSize=10;fontStyle=1;spacing=3;shape=mxgraph.aws4.productIcon;prIcon=mxgraph.aws4.s3;" vertex="1" parent="1">
          <mxGeometry x="341" y="248" width="80" height="100" as="geometry" />
        </mxCell>
        <mxCell id="5ifPPL0t6__1BePgSY4V-2" value="Amazon DynamoDB" style="sketch=0;outlineConnect=0;fontColor=#232F3E;gradientColor=none;strokeColor=#ffffff;fillColor=#232F3E;dashed=0;verticalLabelPosition=middle;verticalAlign=bottom;align=center;html=1;whiteSpace=wrap;fontSize=10;fontStyle=1;spacing=3;shape=mxgraph.aws4.productIcon;prIcon=mxgraph.aws4.dynamodb;" vertex="1" parent="1">
          <mxGeometry x="341" y="570" width="80" height="110" as="geometry" />
        </mxCell>
        <mxCell id="5ifPPL0t6__1BePgSY4V-21" style="edgeStyle=orthogonalEdgeStyle;rounded=0;orthogonalLoop=1;jettySize=auto;html=1;startArrow=classic;startFill=1;" edge="1" parent="1" source="5ifPPL0t6__1BePgSY4V-3" target="5ifPPL0t6__1BePgSY4V-1">
          <mxGeometry relative="1" as="geometry" />
        </mxCell>
        <mxCell id="5ifPPL0t6__1BePgSY4V-22" style="edgeStyle=orthogonalEdgeStyle;rounded=0;orthogonalLoop=1;jettySize=auto;html=1;startArrow=classic;startFill=1;" edge="1" parent="1" source="5ifPPL0t6__1BePgSY4V-3" target="5ifPPL0t6__1BePgSY4V-9">
          <mxGeometry relative="1" as="geometry">
            <Array as="points">
              <mxPoint x="581" y="450" />
            </Array>
          </mxGeometry>
        </mxCell>
        <mxCell id="5ifPPL0t6__1BePgSY4V-3" value="Amazon Cloudfront" style="sketch=0;outlineConnect=0;fontColor=#232F3E;gradientColor=none;strokeColor=#ffffff;fillColor=#232F3E;dashed=0;verticalLabelPosition=middle;verticalAlign=bottom;align=center;html=1;whiteSpace=wrap;fontSize=10;fontStyle=1;spacing=3;shape=mxgraph.aws4.productIcon;prIcon=mxgraph.aws4.cloudfront;" vertex="1" parent="1">
          <mxGeometry x="491" y="243" width="80" height="110" as="geometry" />
        </mxCell>
        <mxCell id="5ifPPL0t6__1BePgSY4V-20" style="edgeStyle=orthogonalEdgeStyle;rounded=0;orthogonalLoop=1;jettySize=auto;html=1;startArrow=classic;startFill=1;" edge="1" parent="1" source="5ifPPL0t6__1BePgSY4V-4" target="5ifPPL0t6__1BePgSY4V-3">
          <mxGeometry relative="1" as="geometry">
            <Array as="points">
              <mxPoint x="611" y="448" />
              <mxPoint x="611" y="298" />
            </Array>
          </mxGeometry>
        </mxCell>
        <mxCell id="5ifPPL0t6__1BePgSY4V-25" style="edgeStyle=orthogonalEdgeStyle;rounded=0;orthogonalLoop=1;jettySize=auto;html=1;" edge="1" parent="1" source="5ifPPL0t6__1BePgSY4V-4" target="5ifPPL0t6__1BePgSY4V-8">
          <mxGeometry relative="1" as="geometry" />
        </mxCell>
        <mxCell id="5ifPPL0t6__1BePgSY4V-4" value="Amazon Route 53" style="sketch=0;outlineConnect=0;fontColor=#232F3E;gradientColor=none;strokeColor=#ffffff;fillColor=#232F3E;dashed=0;verticalLabelPosition=middle;verticalAlign=bottom;align=center;html=1;whiteSpace=wrap;fontSize=10;fontStyle=1;spacing=3;shape=mxgraph.aws4.productIcon;prIcon=mxgraph.aws4.route_53;" vertex="1" parent="1">
          <mxGeometry x="651" y="400" width="80" height="110" as="geometry" />
        </mxCell>
        <mxCell id="5ifPPL0t6__1BePgSY4V-41" style="edgeStyle=orthogonalEdgeStyle;rounded=0;orthogonalLoop=1;jettySize=auto;html=1;" edge="1" parent="1" source="5ifPPL0t6__1BePgSY4V-6" target="5ifPPL0t6__1BePgSY4V-34">
          <mxGeometry relative="1" as="geometry">
            <Array as="points">
              <mxPoint x="182" y="470" />
              <mxPoint x="91" y="470" />
            </Array>
          </mxGeometry>
        </mxCell>
        <mxCell id="5ifPPL0t6__1BePgSY4V-44" style="edgeStyle=orthogonalEdgeStyle;rounded=0;orthogonalLoop=1;jettySize=auto;html=1;" edge="1" parent="1" source="5ifPPL0t6__1BePgSY4V-6" target="5ifPPL0t6__1BePgSY4V-33">
          <mxGeometry relative="1" as="geometry">
            <Array as="points">
              <mxPoint x="182" y="710" />
              <mxPoint x="761" y="710" />
            </Array>
          </mxGeometry>
        </mxCell>
        <mxCell id="5ifPPL0t6__1BePgSY4V-47" style="edgeStyle=orthogonalEdgeStyle;rounded=0;orthogonalLoop=1;jettySize=auto;html=1;" edge="1" parent="1" source="5ifPPL0t6__1BePgSY4V-6" target="5ifPPL0t6__1BePgSY4V-45">
          <mxGeometry relative="1" as="geometry">
            <Array as="points">
              <mxPoint x="182" y="710" />
              <mxPoint x="451" y="710" />
            </Array>
          </mxGeometry>
        </mxCell>
        <mxCell id="5ifPPL0t6__1BePgSY4V-49" style="edgeStyle=orthogonalEdgeStyle;rounded=0;orthogonalLoop=1;jettySize=auto;html=1;" edge="1" parent="1" source="5ifPPL0t6__1BePgSY4V-6" target="5ifPPL0t6__1BePgSY4V-48">
          <mxGeometry relative="1" as="geometry">
            <Array as="points">
              <mxPoint x="182" y="710" />
              <mxPoint x="311" y="710" />
            </Array>
          </mxGeometry>
        </mxCell>
        <mxCell id="5ifPPL0t6__1BePgSY4V-6" value="AWS Identity and Access Management" style="sketch=0;outlineConnect=0;fontColor=#232F3E;gradientColor=none;strokeColor=#ffffff;fillColor=#232F3E;dashed=0;verticalLabelPosition=middle;verticalAlign=bottom;align=center;html=1;whiteSpace=wrap;fontSize=10;fontStyle=1;spacing=3;shape=mxgraph.aws4.productIcon;prIcon=mxgraph.aws4.identity_and_access_management;" vertex="1" parent="1">
          <mxGeometry x="142" y="565" width="80" height="120" as="geometry" />
        </mxCell>
        <mxCell id="5ifPPL0t6__1BePgSY4V-26" style="edgeStyle=orthogonalEdgeStyle;rounded=0;orthogonalLoop=1;jettySize=auto;html=1;" edge="1" parent="1" source="5ifPPL0t6__1BePgSY4V-7" target="5ifPPL0t6__1BePgSY4V-4">
          <mxGeometry relative="1" as="geometry" />
        </mxCell>
        <mxCell id="5ifPPL0t6__1BePgSY4V-7" value="AWS Certificate Manager" style="sketch=0;outlineConnect=0;fontColor=#232F3E;gradientColor=none;strokeColor=#ffffff;fillColor=#232F3E;dashed=0;verticalLabelPosition=middle;verticalAlign=bottom;align=center;html=1;whiteSpace=wrap;fontSize=10;fontStyle=1;spacing=3;shape=mxgraph.aws4.productIcon;prIcon=mxgraph.aws4.certificate_manager_3;" vertex="1" parent="1">
          <mxGeometry x="651" y="243" width="80" height="110" as="geometry" />
        </mxCell>
        <mxCell id="5ifPPL0t6__1BePgSY4V-8" value="Amazon Cognito" style="sketch=0;outlineConnect=0;fontColor=#232F3E;gradientColor=none;strokeColor=#ffffff;fillColor=#232F3E;dashed=0;verticalLabelPosition=middle;verticalAlign=bottom;align=center;html=1;whiteSpace=wrap;fontSize=10;fontStyle=1;spacing=3;shape=mxgraph.aws4.productIcon;prIcon=mxgraph.aws4.cognito;" vertex="1" parent="1">
          <mxGeometry x="651" y="555" width="80" height="110" as="geometry" />
        </mxCell>
        <mxCell id="5ifPPL0t6__1BePgSY4V-23" style="edgeStyle=orthogonalEdgeStyle;rounded=0;orthogonalLoop=1;jettySize=auto;html=1;startArrow=classic;startFill=1;" edge="1" parent="1" source="5ifPPL0t6__1BePgSY4V-9" target="5ifPPL0t6__1BePgSY4V-2">
          <mxGeometry relative="1" as="geometry" />
        </mxCell>
        <mxCell id="5ifPPL0t6__1BePgSY4V-9" value="AWS Lambda" style="sketch=0;outlineConnect=0;fontColor=#232F3E;gradientColor=none;strokeColor=#ffffff;fillColor=#232F3E;dashed=0;verticalLabelPosition=middle;verticalAlign=bottom;align=center;html=1;whiteSpace=wrap;fontSize=10;fontStyle=1;spacing=3;shape=mxgraph.aws4.productIcon;prIcon=mxgraph.aws4.lambda;" vertex="1" parent="1">
          <mxGeometry x="341" y="400" width="80" height="100" as="geometry" />
        </mxCell>
        <mxCell id="5ifPPL0t6__1BePgSY4V-29" style="edgeStyle=orthogonalEdgeStyle;rounded=0;orthogonalLoop=1;jettySize=auto;html=1;" edge="1" parent="1" source="5ifPPL0t6__1BePgSY4V-10" target="5ifPPL0t6__1BePgSY4V-1">
          <mxGeometry relative="1" as="geometry" />
        </mxCell>
        <mxCell id="5ifPPL0t6__1BePgSY4V-31" style="edgeStyle=orthogonalEdgeStyle;rounded=0;orthogonalLoop=1;jettySize=auto;html=1;" edge="1" parent="1" source="5ifPPL0t6__1BePgSY4V-10" target="5ifPPL0t6__1BePgSY4V-9">
          <mxGeometry relative="1" as="geometry">
            <Array as="points">
              <mxPoint x="281" y="298" />
              <mxPoint x="281" y="450" />
            </Array>
          </mxGeometry>
        </mxCell>
        <mxCell id="5ifPPL0t6__1BePgSY4V-32" style="edgeStyle=orthogonalEdgeStyle;rounded=0;orthogonalLoop=1;jettySize=auto;html=1;" edge="1" parent="1" source="5ifPPL0t6__1BePgSY4V-36" target="5ifPPL0t6__1BePgSY4V-2">
          <mxGeometry relative="1" as="geometry">
            <Array as="points">
              <mxPoint x="270" y="625" />
            </Array>
          </mxGeometry>
        </mxCell>
        <mxCell id="5ifPPL0t6__1BePgSY4V-10" value="AWS Cloud9" style="sketch=0;outlineConnect=0;fontColor=#232F3E;gradientColor=none;strokeColor=#ffffff;fillColor=#232F3E;dashed=0;verticalLabelPosition=middle;verticalAlign=bottom;align=center;html=1;whiteSpace=wrap;fontSize=10;fontStyle=1;spacing=3;shape=mxgraph.aws4.productIcon;prIcon=mxgraph.aws4.cloud9;" vertex="1" parent="1">
          <mxGeometry x="142" y="248" width="80" height="100" as="geometry" />
        </mxCell>
        <mxCell id="5ifPPL0t6__1BePgSY4V-39" value="" style="edgeStyle=orthogonalEdgeStyle;rounded=0;orthogonalLoop=1;jettySize=auto;html=1;" edge="1" parent="1" source="5ifPPL0t6__1BePgSY4V-15" target="5ifPPL0t6__1BePgSY4V-10">
          <mxGeometry relative="1" as="geometry" />
        </mxCell>
        <mxCell id="5ifPPL0t6__1BePgSY4V-15" value="" style="sketch=0;pointerEvents=1;shadow=0;dashed=0;html=1;strokeColor=none;fillColor=#505050;labelPosition=center;verticalLabelPosition=bottom;verticalAlign=bottom;outlineConnect=0;align=center;shape=mxgraph.office.users.administrator;" vertex="1" parent="1">
          <mxGeometry x="19" y="258" width="82.86" height="80" as="geometry" />
        </mxCell>
        <mxCell id="5ifPPL0t6__1BePgSY4V-38" value="" style="edgeStyle=orthogonalEdgeStyle;rounded=0;orthogonalLoop=1;jettySize=auto;html=1;" edge="1" parent="1" source="5ifPPL0t6__1BePgSY4V-18" target="5ifPPL0t6__1BePgSY4V-6">
          <mxGeometry relative="1" as="geometry" />
        </mxCell>
        <mxCell id="5ifPPL0t6__1BePgSY4V-18" value="" style="sketch=0;pointerEvents=1;shadow=0;dashed=0;html=1;strokeColor=none;fillColor=#505050;labelPosition=center;verticalLabelPosition=bottom;verticalAlign=top;outlineConnect=0;align=center;shape=mxgraph.office.services.user_services;" vertex="1" parent="1">
          <mxGeometry x="19" y="585" width="80" height="80" as="geometry" />
        </mxCell>
        <mxCell id="5ifPPL0t6__1BePgSY4V-43" style="edgeStyle=orthogonalEdgeStyle;rounded=0;orthogonalLoop=1;jettySize=auto;html=1;" edge="1" parent="1" source="5ifPPL0t6__1BePgSY4V-19" target="5ifPPL0t6__1BePgSY4V-4">
          <mxGeometry relative="1" as="geometry" />
        </mxCell>
        <mxCell id="5ifPPL0t6__1BePgSY4V-19" value="" style="sketch=0;pointerEvents=1;shadow=0;dashed=0;html=1;strokeColor=none;fillColor=#505050;labelPosition=center;verticalLabelPosition=bottom;verticalAlign=top;outlineConnect=0;align=center;shape=mxgraph.office.users.users;" vertex="1" parent="1">
          <mxGeometry x="757" y="415" width="73.6" height="80" as="geometry" />
        </mxCell>
        <mxCell id="5ifPPL0t6__1BePgSY4V-33" value="Role" style="sketch=0;outlineConnect=0;fontColor=#232F3E;gradientColor=none;strokeColor=#232F3E;fillColor=#ffffff;dashed=0;verticalLabelPosition=bottom;verticalAlign=top;align=center;html=1;fontSize=12;fontStyle=0;aspect=fixed;shape=mxgraph.aws4.resourceIcon;resIcon=mxgraph.aws4.role;" vertex="1" parent="1">
          <mxGeometry x="731" y="630" width="60" height="60" as="geometry" />
        </mxCell>
        <mxCell id="5ifPPL0t6__1BePgSY4V-34" value="Role" style="sketch=0;outlineConnect=0;fontColor=#232F3E;gradientColor=none;strokeColor=#232F3E;fillColor=#ffffff;dashed=0;verticalLabelPosition=bottom;verticalAlign=top;align=center;html=1;fontSize=12;fontStyle=0;aspect=fixed;shape=mxgraph.aws4.resourceIcon;resIcon=mxgraph.aws4.role;" vertex="1" parent="1">
          <mxGeometry x="61" y="340" width="60" height="60" as="geometry" />
        </mxCell>
        <mxCell id="5ifPPL0t6__1BePgSY4V-37" value="" style="edgeStyle=orthogonalEdgeStyle;rounded=0;orthogonalLoop=1;jettySize=auto;html=1;" edge="1" parent="1" source="5ifPPL0t6__1BePgSY4V-10" target="5ifPPL0t6__1BePgSY4V-36">
          <mxGeometry relative="1" as="geometry">
            <mxPoint x="222" y="298" as="sourcePoint" />
            <mxPoint x="341" y="625" as="targetPoint" />
            <Array as="points" />
          </mxGeometry>
        </mxCell>
        <mxCell id="5ifPPL0t6__1BePgSY4V-36" value="" style="dashed=0;outlineConnect=0;html=1;align=center;labelPosition=center;verticalLabelPosition=bottom;verticalAlign=top;shape=mxgraph.webicons.github;gradientColor=#DFDEDE" vertex="1" parent="1">
          <mxGeometry x="251" y="268" width="60" height="60" as="geometry" />
        </mxCell>
        <mxCell id="5ifPPL0t6__1BePgSY4V-45" value="Policy" style="sketch=0;outlineConnect=0;fontColor=#232F3E;gradientColor=none;strokeColor=#232F3E;fillColor=#ffffff;dashed=0;verticalLabelPosition=bottom;verticalAlign=top;align=center;html=1;fontSize=12;fontStyle=0;aspect=fixed;shape=mxgraph.aws4.resourceIcon;resIcon=mxgraph.aws4.policy;" vertex="1" parent="1">
          <mxGeometry x="421" y="310" width="60" height="60" as="geometry" />
        </mxCell>
        <mxCell id="5ifPPL0t6__1BePgSY4V-48" value="Role" style="sketch=0;outlineConnect=0;fontColor=#232F3E;gradientColor=none;strokeColor=#232F3E;fillColor=#ffffff;dashed=0;verticalLabelPosition=bottom;verticalAlign=top;align=center;html=1;fontSize=12;fontStyle=0;aspect=fixed;shape=mxgraph.aws4.resourceIcon;resIcon=mxgraph.aws4.role;" vertex="1" parent="1">
          <mxGeometry x="281" y="480" width="60" height="60" as="geometry" />
        </mxCell>
      </root>
    </mxGraphModel>
  </diagram>
</mxfile>
